HIERARCHY
ROOT Hips
{
	OFFSET 0.000000 88.474243 0.000000
	CHANNELS 6 Xposition Yposition Zposition Zrotation Yrotation Xrotation 
	JOINT Hips_Spine
	{
		OFFSET 0.000000 0.000000 0.000000
		CHANNELS 3 Zrotation Yrotation Xrotation
		JOINT Spine
		{
			OFFSET 0.005100 8.711998 -0.691000
			CHANNELS 3 Zrotation Yrotation Xrotation
			JOINT Spine1
			{
				OFFSET -0.009200 8.660301 -1.275000
				CHANNELS 3 Zrotation Yrotation Xrotation
				JOINT Spine2
				{
					OFFSET 0.006300 9.852501 -1.857000
					CHANNELS 3 Zrotation Yrotation Xrotation
					JOINT Spine2_Neck
					{
						OFFSET 0.000000 0.000000 0.000000
						CHANNELS 3 Zrotation Yrotation Xrotation
						JOINT Neck
						{
							OFFSET 0.016300 11.420799 -0.263300
							CHANNELS 3 Zrotation Yrotation Xrotation
							End Site #name: Head
							{
								OFFSET -0.019200 9.262405 2.362500
							}
						}
					}
					JOINT Spine2_LeftShoulder
					{
						OFFSET 0.000000 0.000000 0.000000
						CHANNELS 3 Zrotation Yrotation Xrotation
						JOINT LeftShoulder
						{
							OFFSET 5.616900 6.732201 -0.345700
							CHANNELS 3 Zrotation Yrotation Xrotation
							JOINT LeftArm
							{
								OFFSET 10.664888 -0.183372 -2.440700
								CHANNELS 3 Zrotation Yrotation Xrotation
								JOINT LeftForeArm
								{
									OFFSET 27.459126 0.000000 0.000000
									CHANNELS 3 Zrotation Yrotation Xrotation
									End Site #name: LeftHand
									{
										OFFSET 21.306858 0.000000 0.000000
									}
								}
							}
						}
					}
					JOINT Spine2_RightShoulder
					{
						OFFSET 0.000000 0.000000 0.000000
						CHANNELS 3 Zrotation Yrotation Xrotation
						JOINT RightShoulder
						{
							OFFSET -5.580300 6.737503 -0.344400
							CHANNELS 3 Zrotation Yrotation Xrotation
							JOINT RightArm
							{
								OFFSET -10.679335 -0.188484 -2.383900
								CHANNELS 3 Zrotation Yrotation Xrotation
								JOINT RightForeArm
								{
									OFFSET -27.503529 0.000000 0.000000
									CHANNELS 3 Zrotation Yrotation Xrotation
									End Site #name: RightHand
									{
										OFFSET -21.306808 0.000000 0.000000
									}
								}
							}
						}
					}
				}
			}
		}
	}
	JOINT Hips_LeftUpLeg
	{
		OFFSET 0.000000 0.000000 0.000000
		CHANNELS 3 Zrotation Yrotation Xrotation
		JOINT LeftUpLeg
		{
			OFFSET 6.857700 -6.739601 0.312100
			CHANNELS 3 Zrotation Yrotation Xrotation
			JOINT LeftLeg
			{
				OFFSET -0.367590 -34.731552 -4.572400
				CHANNELS 3 Zrotation Yrotation Xrotation
				End Site #name: LeftFoot
				{
					OFFSET 0.367590 -34.656704 -6.067400
				}
			}
		}
	}
	JOINT Hips_RightUpLeg
	{
		OFFSET 0.000000 0.000000 0.000000
		CHANNELS 3 Zrotation Yrotation Xrotation
		JOINT RightUpLeg
		{
			OFFSET -6.876100 -6.733299 0.301000
			CHANNELS 3 Zrotation Yrotation Xrotation
			JOINT RightLeg
			{
				OFFSET 0.347353 -34.795158 -4.515900
				CHANNELS 3 Zrotation Yrotation Xrotation
				End Site #name: RightFoot
				{
					OFFSET -0.347353 -34.589367 -6.070300
				}
			}
		}
	}
}
MOTION
Frames: 15
Frame Time: 0.041667
0.030174 0.005889 -0.078351 -178.051027 59.919673 -174.506671 -0.000000 -0.000000 0.000000 -3.282118 3.273244 -0.489828 0.758377 -0.433772 0.147774 0.000000 0.000000 0.000000 0.121803 -0.972162 -3.024406 -1.422757 -7.914255 -1.633775 0.425573 -0.158643 -1.382088 -3.447079 -7.313337 1.480347 -76.767729 -9.426784 11.804438 0.364033 -19.827060 2.900147 0.025327 -0.578167 -2.233683 18.192000 13.225962 4.263205 50.190813 13.971620 -13.195056 -9.056327 76.213009 -3.328467 0.000000 -0.000000 0.000000 -5.863631 18.261026 -15.537160 -6.128379 -33.886460 0.848893 0.000000 -0.000000 -0.000000 -9.025800 -26.149253 -8.739265 -14.131722 -10.099068 15.527213 
-0.198277 -0.157484 -0.161398 178.185294 64.325632 -176.653937 -0.000000 -0.000000 0.000000 -5.003317 1.699472 1.398233 0.824031 -0.763037 -0.988218 0.000000 0.000000 0.000000 0.788593 -0.709230 -3.188691 -0.138829 -15.176937 -1.076346 0.458486 -0.489478 -2.184059 -2.234429 -9.051427 1.654566 -82.413724 -15.452218 7.031053 -1.374441 -16.437524 1.452536 0.506025 -1.001670 -1.143002 23.832188 16.275750 4.925278 49.810948 12.476362 -11.926118 -6.203958 64.381516 -1.272564 -0.000000 -0.000000 -0.000000 -4.376329 18.843903 -13.515362 -3.267872 -31.145884 -4.236655 0.000000 -0.000000 -0.000000 -9.389430 -30.849450 -7.424991 -12.415200 -7.102290 14.413108 
-0.212625 -0.214746 -0.191156 177.043799 53.041296 -177.723490 -0.000000 -0.000000 0.000000 -5.893073 -0.758466 1.993975 0.996785 -0.795163 -1.656039 0.000000 0.000000 0.000000 1.105627 -0.893802 -3.500778 -0.609289 -23.655622 -1.062547 0.462020 -0.451048 -2.757366 -1.104730 -8.105876 0.970021 -83.787430 -16.621035 1.498403 -1.101907 -10.257846 1.704836 0.736117 -1.166067 -2.518816 25.590561 18.218626 5.878415 51.112754 11.906332 -7.048961 -4.230727 64.171563 1.501030 -0.000000 0.000000 -0.000000 -3.191023 19.653397 -12.296018 -2.403055 -29.874020 -5.795448 -0.000000 -0.000000 -0.000000 -9.760870 -34.704176 -5.204306 -12.533786 -7.804398 14.595381 
-0.081860 -0.247570 -0.223946 177.413145 40.110978 -178.090368 -0.000000 -0.000000 0.000000 -5.764248 -1.681887 2.763477 0.597474 -1.210639 -2.140915 0.000000 0.000000 0.000000 0.996813 -1.244212 -3.438699 -1.267957 -28.354435 -0.835355 0.299265 -0.795159 -3.073848 -0.891114 -7.031994 0.601381 -84.232785 -18.066392 -0.434910 -0.829084 -7.134787 1.650112 0.596574 -1.577200 -2.690172 24.696440 17.868381 5.920150 51.848324 12.404068 -3.974266 -2.641617 64.721802 2.555846 -0.000000 0.000000 -0.000000 -2.449987 20.327540 -11.203387 -2.026482 -30.458680 -6.311529 -0.000000 -0.000000 -0.000000 -10.557813 -40.963785 -3.978685 -12.913577 -7.661805 15.120637 
0.055621 -0.264064 -0.301980 177.211669 28.450344 -178.495307 -0.000000 -0.000000 0.000000 -5.258876 -2.023178 3.132229 0.196160 -1.492499 -2.294631 0.000000 0.000000 0.000000 0.771828 -1.493061 -2.911071 -1.498889 -30.236924 -0.541866 0.073719 -1.073619 -3.041141 -1.182506 -5.848823 0.420557 -84.372881 -19.140160 0.042575 -0.217981 -5.959167 2.268863 0.248656 -1.870060 -2.357435 22.835470 16.876536 5.549985 52.572428 13.010525 -0.533599 -2.316664 64.446734 2.167874 -0.000000 0.000000 -0.000000 -2.136913 20.985880 -10.701351 -1.831602 -31.048539 -6.668653 -0.000000 -0.000000 -0.000000 -11.099616 -46.361933 -3.269166 -13.828495 -7.475205 15.720127 
0.202551 -0.260771 -0.409780 176.553361 18.766729 -178.848964 -0.000000 -0.000000 0.000000 -4.643336 -1.902457 3.419869 -0.083112 -1.646248 -1.968590 0.000000 0.000000 0.000000 0.574522 -1.575771 -2.084482 -1.338011 -29.835002 -0.865038 -0.088809 -1.206366 -2.675312 -1.597638 -4.662206 0.322030 -84.519411 -19.542718 1.038446 0.938126 -5.793158 3.359960 -0.053628 -1.993678 -1.618815 21.146518 15.997712 5.125602 53.222997 13.016785 1.972049 -2.267008 63.407926 1.874843 -0.000000 0.000000 -0.000000 -2.247400 21.072622 -10.803814 -1.863007 -31.545985 -6.799172 -0.000000 -0.000000 -0.000000 -11.255097 -50.270877 -3.114860 -14.709346 -7.705539 16.144387 
0.354360 -0.237910 -0.535512 175.805121 12.176660 -178.999725 -0.000000 -0.000000 0.000000 -4.201887 -1.125760 3.682226 -0.287874 -1.631497 -1.242882 0.000000 0.000000 0.000000 0.406964 -1.542496 -1.149596 -0.833923 -28.451187 -1.600838 -0.208413 -1.244689 -2.068715 -1.965063 -3.683879 0.261076 -84.363616 -19.824490 2.015514 1.812845 -6.458627 4.165857 -0.230803 -1.990462 -0.979455 19.915127 15.504878 4.696277 53.714776 11.960754 4.028055 -1.972813 61.360898 2.073456 -0.000000 0.000000 -0.000000 -2.507701 20.716991 -11.155321 -1.896650 -31.837966 -7.004404 -0.000000 -0.000000 -0.000000 -11.308175 -52.660770 -3.220704 -15.386838 -8.502655 16.228689 
0.505670 -0.204453 -0.670502 175.149386 7.675161 -179.037624 -0.000000 -0.000000 0.000000 -4.176017 0.165599 3.809883 -0.389173 -1.501428 -0.431664 0.000000 0.000000 0.000000 0.266811 -1.447949 -0.234373 -0.465901 -27.051086 -2.223362 -0.270407 -1.189018 -1.488837 -2.085368 -3.130096 0.262124 -83.936305 -20.166618 2.614387 2.278346 -7.812615 4.355335 -0.301824 -1.903698 -0.681530 19.017791 15.364872 4.342026 54.027674 10.815353 5.490785 -1.364517 58.715475 2.718200 -0.000000 0.000000 -0.000000 -2.727914 20.218424 -11.443444 -1.885581 -31.992809 -7.304584 -0.000000 -0.000000 -0.000000 -11.426481 -53.982958 -3.403198 -15.705928 -9.317859 15.944293 
0.655268 -0.165862 -0.806035 174.622976 3.771592 -179.060155 -0.000000 -0.000000 0.000000 -4.420829 1.178928 4.105581 -0.437099 -1.378553 0.159057 0.000000 0.000000 0.000000 0.147569 -1.330768 0.445450 -0.213020 -26.058767 -2.530153 -0.314880 -1.099494 -1.072581 -1.976614 -2.964656 0.331222 -83.385603 -20.462667 3.167918 2.563490 -9.807544 4.039720 -0.386288 -1.824811 -0.428784 18.372066 15.361567 4.061909 54.384273 9.807021 6.650951 0.468209 55.080491 4.370333 -0.000000 0.000000 -0.000000 -2.817496 19.799562 -11.432416 -1.824177 -32.152079 -7.672117 -0.000000 -0.000000 -0.000000 -11.512974 -54.440039 -3.628721 -15.625099 -10.033376 15.509682 
0.798854 -0.123082 -0.944997 174.303014 0.334879 -179.089102 -0.000000 -0.000000 0.000000 -4.732347 1.787248 4.451460 -0.481246 -1.299557 0.546505 0.000000 0.000000 0.000000 0.045961 -1.255568 0.898781 0.008621 -25.729404 -2.602049 -0.361167 -1.044613 -0.783488 -1.708148 -3.050316 0.424925 -82.988673 -20.700838 3.634553 2.903482 -12.228815 3.359954 -0.491841 -1.788129 -0.256805 17.886331 15.390620 3.837339 54.717457 9.415746 7.158095 3.031583 51.581185 6.433163 -0.000000 0.000000 -0.000000 -2.797561 19.532822 -11.198472 -1.757932 -32.381209 -7.915697 -0.000000 -0.000000 -0.000000 -11.593527 -54.165762 -3.832933 -15.295038 -10.703488 15.122905 
0.937286 -0.077750 -1.086522 174.155327 -2.711334 -179.122379 -0.000000 -0.000000 0.000000 -5.082725 1.980897 4.822322 -0.523266 -1.285160 0.794838 0.000000 0.000000 0.000000 -0.047139 -1.220844 1.155637 0.224416 -25.874847 -2.610198 -0.403616 -1.039682 -0.604899 -1.368853 -3.274943 0.516259 -82.663271 -20.915328 4.184833 3.216944 -14.645856 2.496936 -0.600063 -1.800943 -0.147443 17.526672 15.358536 3.668497 54.946137 9.393253 7.369349 5.184377 49.405634 8.012793 0.000000 0.000000 -0.000000 -2.698153 19.358631 -10.714788 -1.679170 -32.738001 -8.202889 -0.000000 -0.000000 -0.000000 -11.565145 -53.273267 -4.161951 -15.043657 -11.555139 15.033845 
1.070371 -0.032231 -1.232796 174.094509 -5.302945 -179.153517 -0.000000 -0.000000 0.000000 -5.463359 1.864579 5.181774 -0.555613 -1.323828 0.919629 0.000000 0.000000 0.000000 -0.112746 -1.225202 1.274201 0.442278 -26.239008 -2.598828 -0.439178 -1.066870 -0.511811 -1.026573 -3.512272 0.589057 -82.453909 -20.976579 5.001319 3.270956 -16.827031 1.807621 -0.689669 -1.846028 -0.096958 17.300057 15.301696 3.547593 55.117288 9.492744 7.484139 6.938366 48.701297 9.288757 0.000000 0.000000 -0.000000 -2.561064 19.190659 -9.996994 -1.546934 -33.270528 -8.719240 -0.000000 -0.000000 -0.000000 -11.444737 -51.999209 -4.588692 -14.805054 -12.482784 15.083913 
1.196768 0.011831 -1.385745 174.078673 -7.378862 -179.161727 -0.000000 -0.000000 0.000000 -5.797275 1.568695 5.476842 -0.574460 -1.395118 0.978736 0.000000 0.000000 0.000000 -0.152070 -1.258889 1.329350 0.632595 -26.642373 -2.580178 -0.461698 -1.120311 -0.470923 -0.718627 -3.749239 0.657418 -82.416478 -20.868098 6.112973 3.222155 -18.753700 1.179247 -0.749801 -1.907459 -0.073663 17.191906 15.253996 3.468356 55.290060 9.775077 7.626841 8.323412 49.265910 10.314974 0.000000 0.000000 -0.000000 -2.392118 18.986331 -9.170398 -1.412028 -33.948251 -9.370245 -0.000000 -0.000000 -0.000000 -11.295730 -50.659066 -4.975502 -14.480421 -13.298770 15.059774 
1.316710 0.054228 -1.545426 174.082470 -8.939204 -179.161631 -0.000000 -0.000000 0.000000 -6.042151 1.222139 5.637243 -0.578368 -1.476480 1.014339 0.000000 0.000000 0.000000 -0.161501 -1.306851 1.358493 0.784688 -26.993282 -2.536521 -0.474035 -1.187568 -0.460267 -0.454864 -3.914412 0.699002 -82.364203 -20.776532 7.019705 3.169575 -20.239388 0.591248 -0.783931 -1.984047 -0.059293 17.148986 15.215399 3.421054 55.413413 10.140108 7.802647 9.364717 50.437146 11.145162 0.000000 0.000000 -0.000000 -2.232512 18.788900 -8.310961 -1.241590 -34.687047 -10.166225 -0.000000 -0.000000 -0.000000 -11.045920 -49.285891 -5.369716 -14.141674 -13.906784 14.979747 
1.431139 0.093762 -1.711335 174.105541 -10.152324 -179.151637 -0.000000 -0.000000 0.000000 -6.179537 0.904003 5.666028 -0.563212 -1.561040 1.026581 0.000000 0.000000 0.000000 -0.148313 -1.361709 1.384911 0.899099 -27.332876 -2.457975 -0.472996 -1.258346 -0.464612 -0.222737 -4.021526 0.709347 -82.313743 -20.703414 7.675351 3.141516 -21.347109 0.124759 -0.794799 -2.066301 -0.048539 17.144421 15.204616 3.399079 55.517139 10.537979 8.042587 10.144412 51.990682 11.821257 0.000000 0.000000 -0.000000 -2.086022 18.599669 -7.487491 -1.045369 -35.450973 -11.015328 -0.000000 0.000000 -0.000000 -10.774997 -48.418909 -5.718398 -13.857683 -14.237257 14.908052 
